<?xml version="1.0" encoding="utf-8"?>
<!-- Generator: Adobe Illustrator 26.2.1, SVG Export Plug-In . SVG Version: 6.00 Build 0)  -->
<svg version="1.1" id="Layer_1" xmlns="http://www.w3.org/2000/svg" xmlns:xlink="http://www.w3.org/1999/xlink" x="0px" y="0px"
	 viewBox="0 0 248.6 336" style="enable-background:new 0 0 248.6 336;" xml:space="preserve">
<g>
	<path d="M136.6,3.4c-0.6-0.6-1.1-0.6-1.7-0.6c-0.6-0.6-1.7-1.1-2.2-1.1c-0.6,0-1.1-0.6-2.2-0.6c-0.6,0-1.7-0.6-2.2-0.6
		c-1.1,0-2.2-0.6-3.4-0.6h-1.1h-1.1c-1.1,0-2.2,0-3.4,0.6c-1.1,0-1.7,0.6-2.2,0.6s-1.1,0.6-1.7,0.6c-1.1,0.6-1.7,1.1-2.8,1.7
		c-0.6,0-0.6,0.6-1.1,0.6c-1.1,1.1-2.2,1.7-3.4,2.8L6.7,108.1c-9,9-9,23,0,31.9c9,9,23,9,31.9,0l63.3-63.3v236.9
		c0,12.3,10.1,22.4,22.4,22.4s22.4-10.1,22.4-22.4V76.7L210,140c9,9,23,9,31.9,0c4.5-4.5,6.7-10.1,6.7-15.7c0-5.6-2.2-11.2-6.7-15.7
		L140,6.7C138.9,5.6,137.8,4.5,136.6,3.4L136.6,3.4z"/>
</g>
</svg>
