<?xml version="1.0" encoding="utf-8"?>
<!-- Generator: Adobe Illustrator 26.2.1, SVG Export Plug-In . SVG Version: 6.00 Build 0)  -->
<svg version="1.1" id="Layer_1" xmlns="http://www.w3.org/2000/svg" xmlns:xlink="http://www.w3.org/1999/xlink" x="0px" y="0px"
	 viewBox="0 0 504.5 432.2" style="enable-background:new 0 0 504.5 432.2;" xml:space="preserve">
<g>
	<path d="M83.4,328.6h157.9l174.2,103.6l-8.4-103.6h14c45.9,0,83.4-37.5,83.4-83.4V83.4C504.5,37.5,467,0,421.1,0H83.4
		C37.5,0,0,37.5,0,83.4v161.8C0,291,37.5,328.6,83.4,328.6L83.4,328.6z M26.9,83.3c0-30.8,25.2-56.6,56-56.6h337.7
		c30.8,0,56.6,25.2,56.6,56.6v161.8c0,30.8-25.2,56-56.6,56h-43.7l6.7,80.6l-135-80.1H83.4c-30.8,0-56-25.2-56-56V83.3H26.9z"/>
</g>
</svg>
