<?xml version="1.0" encoding="utf-8"?>
<!-- Generator: Adobe Illustrator 26.2.1, SVG Export Plug-In . SVG Version: 6.00 Build 0)  -->
<svg version="1.1" id="Layer_1" xmlns="http://www.w3.org/2000/svg" xmlns:xlink="http://www.w3.org/1999/xlink" x="0px" y="0px"
	 viewBox="0 0 201.6 201.6" style="enable-background:new 0 0 201.6 201.6;" xml:space="preserve">
<g>
	<path d="M201.6,190.4l-11.2,11.2l-58-57.4c-14,11.3-31.8,18.2-51.2,18.2C36.4,162.4,0,126,0,81.2C0,36.4,36.4,0,81.2,0
		c44.8,0,81.2,36.4,81.2,81.2c0,19.4-6.8,37.2-18.2,51.2L201.6,190.4z M81.2,145.6c35.6,0,64.4-28.8,64.4-64.4
		c0-35.6-28.8-64.4-64.4-64.4c-35.6,0-64.4,28.8-64.4,64.4C16.8,116.8,45.6,145.6,81.2,145.6z"/>
</g>
</svg>
